<?xml version="1.0" standalone="no"?>
<!DOCTYPE svg PUBLIC "-//W3C//DTD SVG 20010904//EN"
 "http://www.w3.org/TR/2001/REC-SVG-20010904/DTD/svg10.dtd">
<svg version="1.0" xmlns="http://www.w3.org/2000/svg"
 width="512.000000pt" height="612.000000pt" viewBox="0 0 512.000000 512.000000"
 preserveAspectRatio="xMidYMid meet">

<g transform="translate(0.000000,512.000000) scale(0.100000,-0.100000)"
fill="#00699d" stroke="none">
<path d="M2457 5109 c-138 -32 -272 -152 -318 -282 -9 -26 -18 -36 -28 -32 -8
3 -45 11 -83 17 -135 24 -285 -26 -382 -126 -99 -101 -136 -205 -136 -379 0
-109 0 -109 -22 -103 -54 15 -151 18 -210 7 -174 -34 -322 -181 -358 -355 -8
-38 -10 -333 -7 -1007 3 -850 5 -963 21 -1039 60 -299 176 -545 359 -765 l67
-80 0 -482 0 -483 1050 0 1050 0 0 433 0 433 58 41 c368 262 617 676 678 1132
21 159 20 1004 -1 1086 -45 171 -182 302 -353 335 -59 12 -156 9 -209 -6 l-23
-6 0 484 c0 402 -3 494 -15 543 -59 226 -281 375 -503 337 -38 -6 -75 -14 -83
-17 -10 -3 -24 17 -47 65 -88 189 -305 296 -505 249z m173 -311 c18 -13 43
-36 54 -51 21 -28 21 -32 24 -978 l2 -949 150 0 150 0 0 793 0 792 23 39 c56
98 179 100 251 3 21 -28 21 -29 21 -1034 l0 -1005 -71 -18 c-241 -61 -458
-239 -573 -467 -42 -85 -81 -222 -88 -315 l-6 -78 152 0 151 0 0 38 c0 117 74
277 174 377 124 123 261 174 464 175 l102 0 0 468 c0 465 0 467 23 506 56 98
179 100 251 3 21 -28 21 -37 21 -520 0 -437 -2 -501 -18 -577 -40 -185 -115
-363 -216 -514 -102 -151 -290 -324 -448 -413 l-63 -35 0 -369 0 -369 -750 0
-750 0 0 396 0 396 -84 89 c-176 185 -290 407 -343 667 -16 80 -18 167 -18
1029 0 940 0 942 21 970 31 42 83 73 121 73 52 0 110 -34 133 -80 19 -38 20
-58 20 -605 l0 -565 150 0 150 0 2 874 c3 870 3 875 24 903 31 42 83 73 121
73 52 0 110 -34 133 -80 19 -38 20 -57 20 -755 l0 -715 150 0 150 0 0 868 0
867 23 39 c41 73 133 97 197 54z"/>
</g>
</svg>
