<?xml version="1.0" standalone="no"?>
<!DOCTYPE svg PUBLIC "-//W3C//DTD SVG 20010904//EN"
 "http://www.w3.org/TR/2001/REC-SVG-20010904/DTD/svg10.dtd">
<svg version="1.0" xmlns="http://www.w3.org/2000/svg"
 width="512.000000pt" height="612.000000pt" viewBox="0 0 512.000000 512.000000"
 preserveAspectRatio="xMidYMid meet">

<g transform="translate(0.000000,512.000000) scale(0.100000,-0.100000)"
fill="rgb(2 132 199)" stroke="none">
<path d="M1705 5106 c-84 -21 -147 -57 -210 -121 -65 -65 -105 -137 -124 -223
-6 -32 -11 -156 -11 -310 l0 -257 -52 -24 c-69 -32 -167 -130 -200 -201 -48
-102 -50 -133 -45 -595 4 -389 6 -439 25 -523 32 -143 58 -215 133 -367 74
-151 145 -256 282 -416 93 -109 131 -177 147 -260 6 -31 10 -401 10 -930 l0
-879 1050 0 1050 0 0 935 c0 643 3 951 11 987 6 29 42 116 79 193 87 177 124
272 155 392 53 204 56 259 53 1159 l-3 829 -23 55 c-46 113 -130 197 -242 242
-45 17 -76 22 -170 22 -63 1 -127 -2 -143 -7 -24 -7 -29 -4 -38 20 -56 149
-172 253 -320 284 -70 15 -222 6 -279 -16 -25 -10 -64 -31 -87 -46 l-43 -28
-42 28 c-80 53 -132 66 -258 66 -127 0 -178 -13 -260 -68 -44 -29 -45 -29 -75
-12 -138 81 -246 102 -370 71z m175 -306 c26 -13 47 -34 60 -60 18 -36 20 -58
20 -280 l0 -240 -150 0 -150 0 0 240 c0 222 2 244 20 280 37 73 124 99 200 60z
m617 0 c60 -36 63 -52 63 -330 l0 -250 -150 0 -150 0 0 250 c0 278 3 294 63
330 21 14 50 20 87 20 37 0 66 -6 87 -20z m600 0 c64 -39 63 -27 63 -582 0
-481 -1 -504 -20 -535 -26 -43 -68 -63 -130 -63 -62 0 -104 20 -130 63 -19 31
-20 54 -20 535 0 555 -1 543 63 582 21 14 50 20 87 20 37 0 66 -6 87 -20z
m598 -296 c63 -30 65 -42 65 -434 0 -392 -2 -404 -65 -434 -18 -9 -56 -16 -85
-16 -29 0 -67 7 -85 16 -63 30 -65 42 -65 434 0 390 2 404 63 434 41 20 130
20 172 0z m-1165 -589 c0 -3 -12 -29 -26 -57 -34 -67 -117 -149 -185 -183 -91
-47 -139 -55 -331 -55 l-178 0 0 -150 0 -150 35 0 c50 0 178 -28 239 -51 83
-33 186 -103 255 -172 129 -131 199 -278 217 -459 l7 -68 150 0 150 0 -7 86
c-20 245 -131 480 -311 661 -47 46 -85 86 -85 88 0 2 20 15 45 30 25 14 61 40
81 57 l34 30 22 -28 c64 -83 159 -144 259 -165 70 -15 222 -6 279 16 25 10 63
30 86 45 l41 27 54 -33 c30 -18 81 -40 114 -49 65 -16 188 -20 248 -6 l37 9 0
-250 c0 -392 -25 -516 -165 -808 -46 -96 -94 -206 -106 -245 l-24 -70 -3 -832
-3 -833 -749 0 -749 0 -4 778 c-3 708 -4 782 -21 837 -29 100 -92 216 -161
295 -250 289 -368 517 -404 774 -6 44 -11 238 -11 449 0 367 1 373 23 411 45
78 25 76 619 76 291 0 528 -2 528 -5z"/>
</g>
</svg>
