<?xml version="1.0" standalone="no"?>
<!DOCTYPE svg PUBLIC "-//W3C//DTD SVG 20010904//EN"
 "http://www.w3.org/TR/2001/REC-SVG-20010904/DTD/svg10.dtd">
<svg version="1.0" xmlns="http://www.w3.org/2000/svg"
 width="512.000000pt" height="612.000000pt" viewBox="0 0 512.000000 512.000000"
 preserveAspectRatio="xMidYMid meet">

<g transform="translate(0.000000,512.000000) scale(0.100000,-0.100000)"
fill="#00699d" stroke="none">
<path d="M1395 5106 c-172 -43 -305 -188 -335 -367 -9 -53 -8 -89 5 -185 9
-65 54 -390 100 -720 l84 -601 -49 -51 c-57 -59 -102 -143 -120 -222 -9 -40
-11 -171 -7 -490 4 -426 4 -437 30 -540 67 -274 197 -519 402 -754 165 -189
165 -191 165 -743 l0 -433 1050 0 1050 0 0 498 c0 418 2 507 15 550 9 28 49
119 89 202 84 171 136 321 168 483 21 109 22 137 26 927 2 576 0 834 -8 880
-42 243 -280 414 -514 369 -39 -7 -75 -14 -80 -14 -4 0 -16 21 -25 46 -35 92
-103 170 -195 224 -54 31 -173 58 -244 53 -28 -2 -52 -2 -52 -1 0 1 16 100 36
220 33 201 35 224 25 292 -23 151 -119 278 -258 344 -58 27 -82 32 -165 35
-118 5 -199 -18 -286 -82 -131 -97 -157 -161 -217 -526 -25 -157 -49 -293 -53
-303 -5 -11 -23 97 -46 265 -52 381 -70 435 -181 536 -115 105 -263 144 -410
108z m198 -319 c19 -14 39 -38 45 -54 9 -21 202 -1368 202 -1406 0 -4 -67 -7
-150 -7 l-149 0 -6 33 c-3 17 -46 322 -95 677 -70 506 -88 653 -80 679 29 102
149 142 233 78z m1049 7 c33 -17 63 -59 72 -100 7 -32 -102 -699 -129 -788
-12 -38 -15 -108 -15 -318 l0 -268 -190 0 -190 0 5 23 c3 12 55 321 115 687
61 366 115 677 121 691 33 82 128 114 211 73z m457 -892 c19 -10 43 -34 53
-53 17 -31 18 -68 18 -527 0 -525 -1 -533 -49 -577 -31 -27 -143 -34 -186 -11
-67 36 -65 20 -65 583 0 492 1 509 20 541 36 60 140 81 209 44z m600 -310 c14
-10 34 -31 45 -46 20 -26 21 -42 24 -364 3 -336 3 -337 -20 -381 -55 -104
-197 -109 -258 -9 -19 31 -20 51 -20 373 0 389 0 390 81 433 50 27 106 24 148
-6z m-1159 -577 c0 -3 -12 -28 -26 -56 -51 -102 -151 -185 -265 -220 -50 -16
-92 -19 -245 -19 l-184 0 0 -149 0 -149 66 -7 c363 -39 640 -316 679 -679 l7
-66 149 0 149 0 0 28 c0 15 -7 71 -15 125 -35 235 -141 436 -319 609 -39 37
-68 69 -65 71 2 2 29 20 60 40 31 20 64 46 74 57 17 19 18 18 80 -45 91 -94
165 -127 302 -133 125 -6 205 12 283 64 28 19 53 34 56 34 2 0 25 -14 51 -30
79 -51 171 -74 267 -67 44 3 92 9 105 13 l23 7 -5 -294 c-4 -249 -8 -309 -26
-391 -29 -134 -72 -250 -147 -400 -35 -71 -76 -163 -92 -205 l-27 -78 -3 -387
-3 -388 -750 0 -749 0 0 289 c0 311 -7 381 -53 501 -34 91 -78 158 -174 269
-150 171 -261 356 -316 526 -51 154 -57 225 -57 637 0 372 0 381 22 419 13 24
37 46 62 59 40 19 60 20 564 20 287 0 522 -2 522 -5z"/>
</g>
</svg>
